<?xml version="1.0" encoding="UTF-8"?>
<svg version="1.1" xmlns="http://www.w3.org/2000/svg" width="1200" height="867">
<path d="M0 0 C1.02428101 -0.00701431 2.04856201 -0.01402863 3.10388184 -0.02125549 C6.39091439 -0.03866127 9.67776681 -0.04510767 12.96484375 -0.046875 C14.08760712 -0.04754974 15.21037048 -0.04822449 16.36715698 -0.04891968 C32.74440721 -0.03326363 48.73877595 0.32304072 64.90234375 3.203125 C65.9289209 3.38004883 66.95549805 3.55697266 68.01318359 3.73925781 C101.90575677 9.70303227 134.49426551 20.3345184 165.03320312 36.23828125 C166.80698123 37.1538992 168.59651044 38.0388126 170.38671875 38.921875 C187.63191259 47.65943988 203.96383746 58.95110758 218.90234375 71.203125 C219.42795898 71.63399414 219.95357422 72.06486328 220.49511719 72.50878906 C235.56331744 84.91841994 250.41405659 98.15699589 262.90234375 113.203125 C263.34094727 113.72261719 263.77955078 114.24210937 264.23144531 114.77734375 C314.21368239 174.08828912 342.08421986 249.01864682 342.15234375 326.640625 C342.15335587 327.69869354 342.15335587 327.69869354 342.15438843 328.77813721 C342.0350198 408.6614086 312.47791592 486.8903803 258.90234375 546.203125 C258.42168457 546.74018066 257.94102539 547.27723633 257.44580078 547.83056641 C248.48918973 557.83216695 239.23680917 567.60795686 228.90234375 576.203125 C228.09700195 576.87915771 228.09700195 576.87915771 227.27539062 577.56884766 C167.20022349 627.86172154 93.26736893 655.40879656 14.83984375 655.453125 C13.23289139 655.45413712 13.23289139 655.45413712 11.59347534 655.45516968 C-4.82187789 655.4387554 -20.87817728 654.96604778 -37.09765625 652.203125 C-38.14276367 652.02620117 -39.18787109 651.84927734 -40.26464844 651.66699219 C-95.28015328 642.04052579 -147.75443174 619.75165518 -191.09765625 584.203125 C-191.62327148 583.77225586 -192.14888672 583.34138672 -192.69042969 582.89746094 C-207.75862994 570.48783006 -222.60936909 557.24925411 -235.09765625 542.203125 C-235.53625977 541.68363281 -235.97486328 541.16414062 -236.42675781 540.62890625 C-286.40864482 481.31837629 -314.27954047 406.37835582 -314.34765625 328.765625 C-314.34833099 328.06024597 -314.34900574 327.35486694 -314.34970093 326.62811279 C-314.30128155 294.2251425 -309.52367047 262.20488097 -300.09765625 231.203125 C-299.70755371 229.90930908 -299.70755371 229.90930908 -299.30957031 228.58935547 C-285.95093139 184.90807777 -262.63218724 144.13038166 -232.09765625 110.203125 C-231.35950684 109.38038086 -231.35950684 109.38038086 -230.60644531 108.54101562 C-220.96979795 97.84477594 -211.15317452 87.36647781 -199.85546875 78.40234375 C-197.00314985 76.12776083 -194.24271866 73.76442507 -191.47265625 71.390625 C-139.20231866 27.91029283 -68.25966939 0.31438975 0 0 Z M-102.47265625 81.765625 C-105.29204787 85.99471243 -105.88517084 90.23028003 -105.09765625 95.203125 C-103.36637794 99.2403798 -101.14893467 102.32232416 -97.78515625 105.140625 C-92.59819068 107.19128581 -88.78073595 107.66742285 -83.47265625 106.203125 C-78.85366832 103.46594697 -75.22331725 100.40402696 -73.3984375 95.21484375 C-72.49158572 90.19303013 -73.56566589 86.67630797 -76.09765625 82.203125 C-80.14919569 77.5282718 -82.76193416 75.43286816 -88.91015625 74.828125 C-94.72647316 74.99059195 -98.52475624 77.50604868 -102.47265625 81.765625 Z M-57.48828125 81.8125 C-60.46978305 86.38973516 -60.67972265 89.96452742 -60.09765625 95.203125 C-58.09468957 100.87819725 -54.48415446 104.50987589 -49.09765625 107.203125 C-42.27910499 107.96351189 -37.55187587 107.4574163 -32.09765625 103.203125 C-28.35919154 98.41022153 -27.44422243 94.62727638 -27.7109375 88.56640625 C-28.49977699 83.7457205 -31.14939138 81.05887622 -34.66015625 77.890625 C-42.63352763 72.37059866 -51.46839616 74.8456667 -57.48828125 81.8125 Z M128.02734375 80.890625 C126.22791659 84.58944751 126.37601066 88.17271134 126.90234375 92.203125 C128.63105947 96.38843674 130.73273853 98.44262502 134.90234375 100.203125 C139.69077417 100.73517282 141.88751867 100.70096372 146.21484375 98.578125 C149.66458942 95.52951255 151.72462663 92.94427692 152.03125 88.21484375 C151.78535148 84.25811307 151.13083713 82.48719785 148.58984375 79.328125 C145.22556032 76.66799392 143.2904622 75.38418393 139.02734375 74.828125 C134.2822098 75.39754107 131.50363267 77.76196498 128.02734375 80.890625 Z M92.52734375 83.328125 C89.36333259 87.34887913 88.52504356 91.13652239 88.90234375 96.203125 C90.837631 103.0335506 94.26740028 106.09868404 100.27734375 109.578125 C105.49013537 110.81926586 109.52559938 109.91797304 114.15234375 107.515625 C118.23616976 104.08149859 120.4077678 100.98359841 121.83984375 95.828125 C121.9274144 90.7490271 120.96359094 86.54196135 117.5390625 82.65625 C113.88824103 79.44880995 110.32824669 77.52232276 105.52734375 76.890625 C100.10480031 77.53616589 96.27993757 79.44954482 92.52734375 83.328125 Z M52.08984375 86.203125 C48.87198177 90.61619286 48.37144895 93.8056945 48.90234375 99.203125 C50.71675828 103.46543499 52.90169366 106.47537948 56.65234375 109.203125 C62.36978901 110.96233892 66.89650967 111.24318711 72.27734375 108.453125 C76.87539332 104.51193966 78.70447104 101.57759749 79.21484375 95.453125 C79.12294693 90.90840939 77.97455105 87.59285094 74.90234375 84.203125 C67.02638901 78.52238318 58.70049326 78.56668505 52.08984375 86.203125 Z M-161.09765625 91.203125 C-165.60658374 96.91740935 -167.53980499 102.16593649 -167.43359375 109.44140625 C-166.62042518 116.12640835 -163.44958513 121.5134466 -158.22265625 125.703125 C-152.2464748 129.63893106 -146.7156433 130.77844651 -139.66015625 129.875 C-133.25485049 128.19556008 -127.59058718 123.79181449 -124.09765625 118.203125 C-121.32728831 112.24683393 -120.9609986 105.79813525 -122.9375 99.546875 C-125.66293306 93.45365093 -129.0872281 89.22407318 -135.09765625 86.203125 C-144.69747838 82.78442841 -153.35196753 84.58287823 -161.09765625 91.203125 Z M-6.09765625 97.203125 C-11.44654272 105.28264048 -14.11169658 113.09452658 -12.53515625 122.703125 C-10.25208163 131.36671279 -4.7045626 137.69960549 2.90234375 142.203125 C9.70606825 145.89138633 17.15343982 146.47405468 24.6171875 144.4765625 C34.17358687 140.94141326 39.40492763 135.2126068 43.90234375 126.203125 C46.06148014 119.69970213 45.9148194 111.78052242 43.33984375 105.453125 C38.93856322 96.98794432 32.99957444 91.30203545 23.90234375 88.203125 C12.4782225 85.57557711 1.92228004 88.52506417 -6.09765625 97.203125 Z M160.4140625 103.09375 C155.91749928 109.36802426 154.06900244 116.23534687 155.30078125 123.85546875 C157.53436544 132.57224862 162.3083749 137.2425673 169.71484375 142.015625 C177.4112694 144.88292083 183.75280806 144.70489259 191.35546875 141.55859375 C197.64198378 138.21285645 201.65892676 133.25773416 204.23828125 126.65234375 C206.33592825 118.91572806 205.36736569 112.37608647 201.453125 105.4296875 C197.53170222 99.79943313 192.49012823 96.17946034 185.90234375 94.203125 C175.75793011 92.9543446 167.39391828 95.47936187 160.4140625 103.09375 Z M67.52734375 118.328125 C65.11583885 122.59463367 65.15031791 126.41471556 65.90234375 131.203125 C67.71467912 135.03691136 69.20260902 136.73663518 72.71484375 139.078125 C77.98225032 140.93720967 81.41012379 140.81012973 86.58984375 138.703125 C90.60693315 136.13690311 92.60775281 132.74271033 93.90234375 128.203125 C93.90234375 122.76425236 92.38866267 119.34901777 88.90234375 115.203125 C80.51080675 109.608767 74.50561596 112.08440776 67.52734375 118.328125 Z M100.34375 128.05859375 C96.70358862 133.47444361 95.19987038 138.64670689 95.90234375 145.203125 C97.54345764 152.52160585 101.79764044 158.11374999 107.75 162.59375 C113.18548837 165.76352145 118.7515616 166.17835332 124.90234375 165.203125 C131.72335969 162.98506802 137.06643528 159.31984391 140.90234375 153.203125 C143.90732819 146.91241362 144.06425938 140.06716999 142.0625 133.41015625 C138.83642972 126.230249 134.17840155 122.67873741 127.52734375 118.828125 C116.50751246 116.20435564 107.39912553 119.23528189 100.34375 128.05859375 Z M-111.41015625 126.515625 C-115.57768318 131.86414049 -117.72674774 137.07189318 -117.4375 143.875 C-116.37948008 151.12304448 -112.97921863 156.23609384 -107.30078125 160.7578125 C-101.64165196 164.47036186 -96.00833254 165.93566607 -89.29296875 164.8359375 C-82.3411537 162.83203352 -77.10949737 158.10211507 -73.09765625 152.203125 C-70.39453485 146.5511439 -69.96687364 140.55003959 -71.97265625 134.61328125 C-74.99247228 128.00743369 -78.8518354 123.24506206 -85.453125 120.0703125 C-95.18925559 116.87766702 -104.55068071 119.06915277 -111.41015625 126.515625 Z M-183.09765625 125.203125 C-184.60218372 128.65468803 -184.2313424 129.86222532 -182.84765625 133.390625 C-181.23954743 136.40710379 -181.23954743 136.40710379 -178.09765625 138.203125 C-174.07729893 138.64983137 -171.80143814 138.58561516 -168.22265625 136.640625 C-165.43160317 133.43912294 -165.09765625 131.42206771 -165.09765625 127.203125 C-166.34041298 124.2597538 -167.36099781 122.71878591 -169.97265625 120.890625 C-175.9908731 118.94355484 -178.72990864 120.7361104 -183.09765625 125.203125 Z M-50.09765625 138.203125 C-53.60988795 143.9105015 -53.925848 149.67170366 -53.09765625 156.203125 C-51.31436054 162.38097085 -47.43273992 166.72034689 -42.09765625 170.203125 C-36.51667986 172.87388928 -31.17356919 173.04952083 -25.09765625 172.203125 C-18.62546007 169.77158168 -14.32098764 166.12917138 -10.9375 160.1328125 C-8.59511171 154.75076685 -8.03962458 149.19936124 -10.00390625 143.63671875 C-13.28431808 136.58173048 -16.80207844 132.42002683 -24.09765625 129.390625 C-34.51887942 125.93662111 -43.05241113 130.42906142 -50.09765625 138.203125 Z M-140.09765625 142.203125 C-140.9087898 145.05647422 -140.85901759 147.34225207 -140.09765625 150.203125 C-138.20116074 153.34971166 -138.20116074 153.34971166 -135.09765625 155.203125 C-130.96916694 155.86663221 -128.89832007 155.63826838 -125.22265625 153.640625 C-122.40187056 150.40501788 -122.02394765 148.47822403 -122.09765625 144.203125 C-124.32745293 139.94514124 -124.32745293 139.94514124 -128.09765625 137.203125 C-133.72262723 136.4360835 -136.39054623 137.96642783 -140.09765625 142.203125 Z M58.90234375 149.203125 C55.85544204 153.67191417 54.94228539 157.91752895 55.90234375 163.203125 C57.93273876 167.04637269 60.02040735 170.15432523 63.90234375 172.203125 C69.52514371 173.60882499 73.06955109 173.46905544 78.13671875 170.56640625 C82.21081045 167.42070271 83.68747845 163.73404028 84.40234375 158.640625 C83.64762522 153.45193514 81.1973577 150.65049354 77.77734375 146.828125 C71.33527656 143.18695659 64.29662459 144.20354763 58.90234375 149.203125 Z M14.08984375 155.953125 C9.95002023 162.10371994 8.14043605 167.20675984 9.19921875 174.67578125 C10.79017623 180.39438954 14.20676354 185.30938425 19.08984375 188.703125 C25.04132557 191.87724864 31.66921098 192.40227182 38.19140625 190.5546875 C44.3192072 187.78653031 48.44586689 183.31468919 51.27734375 177.265625 C52.83817622 169.61754591 52.09096829 163.82899014 47.90234375 157.203125 C43.83220616 152.67967824 39.4307741 149.65670499 33.2890625 148.8671875 C25.10457482 148.74874339 19.98545321 150.18852908 14.08984375 155.953125 Z M-178.98046875 169.46484375 C-182.67427627 175.21220161 -182.86218289 181.55835024 -182.09765625 188.203125 C-179.80640154 195.53514008 -174.81652273 200.81812005 -168.04296875 204.41015625 C-161.91369972 206.90863339 -156.32931928 206.58316423 -150.23046875 204.203125 C-144.12341113 201.33974267 -140.06192331 197.97517292 -136.98046875 191.86328125 C-134.84876473 185.43987223 -134.89007673 178.08105528 -137.59765625 171.828125 C-140.77460891 166.51067232 -145.46970784 162.51709921 -150.97265625 159.765625 C-162.19659793 157.7453155 -171.82376728 160.02365847 -178.98046875 169.46484375 Z M-131.09765625 164.203125 C-132.67221364 167.35223979 -132.44564743 169.72321316 -132.09765625 173.203125 C-130.20202972 176.40199477 -128.75138258 178.56472551 -125.1953125 179.9375 C-121.23638084 180.69737172 -119.40413824 180.35636599 -115.72265625 178.515625 C-112.57531272 175.84548976 -112.57531272 175.84548976 -111.09765625 172.203125 C-111.29022537 166.90747416 -112.40719036 164.00542319 -116.09765625 160.203125 C-122.47287866 157.01551379 -126.6347904 159.74025915 -131.09765625 164.203125 Z M131.46484375 175.9765625 C127.69146326 181.3536297 127.20761654 186.80946363 127.90234375 193.203125 C129.42142452 199.71855736 132.51231273 204.87975835 138.0625 208.68359375 C145.0732682 212.65006641 151.56638857 213.62940233 159.38671875 211.5390625 C166.4082688 208.82940392 170.09525375 204.33541433 173.77734375 197.953125 C175.7165985 191.48894249 176.11373891 185.061928 173.21484375 178.828125 C169.93162507 173.15500156 165.17208445 168.61505848 159.15234375 166.015625 C147.72775575 163.159478 138.75043101 166.95771053 131.46484375 175.9765625 Z M-63.09765625 173.203125 C-64.68704972 176.38191194 -64.51342336 178.6988022 -64.09765625 182.203125 C-61.21145125 185.43292584 -59.31906016 186.97878551 -55.03515625 187.765625 C-51.41984517 187.07333139 -49.71657209 185.74721467 -47.09765625 183.203125 C-45.67103406 180.34988063 -45.78731757 178.36857951 -46.09765625 175.203125 C-47.89759399 172.50321838 -49.18142925 170.6612385 -52.09765625 169.203125 C-57.2128463 168.63477055 -59.42607208 169.63644324 -63.09765625 173.203125 Z M81.40234375 185.078125 C77.40441544 191.14863371 76.41121817 196.57852662 77.375 203.71484375 C78.87406252 210.78819802 81.95710777 214.81466679 87.8046875 218.9765625 C93.76452165 222.46145621 99.10408153 222.9754381 105.90234375 222.203125 C113.23407901 219.91582142 118.518644 214.91953024 122.109375 208.1484375 C124.561742 202.13228595 124.36267072 196.42029481 122.0390625 190.40625 C118.95045756 184.42008784 114.36436654 179.51640894 108.12890625 176.83203125 C97.98147651 173.96582741 88.04170877 176.81508961 81.40234375 185.078125 Z M-102.59375 186.453125 C-107.31760675 191.94997649 -109.47207548 198.56808409 -109.37890625 205.73046875 C-108.60193799 212.56131467 -104.9309953 218.47963457 -100.09765625 223.203125 C-93.9491823 227.03211476 -88.37809341 228.68848748 -81.09765625 228.203125 C-74.64335523 226.58954975 -68.43589656 223.58058323 -64.5859375 218.01953125 C-61.14473925 212.0146896 -59.53261147 207.20968025 -60.09765625 200.203125 C-62.85136885 191.07164279 -66.47109237 185.76818354 -74.87890625 181.21875 C-84.49782313 176.81572467 -95.02638207 179.43004571 -102.59375 186.453125 Z M-14.09765625 183.203125 C-16.51532697 186.63465764 -17.10894679 188.55956409 -17.03515625 192.765625 C-16.01635201 196.50124054 -14.77644328 198.4431626 -12.09765625 201.203125 C-8.86905778 202.81742423 -5.58771972 202.79883157 -2.09765625 202.203125 C0.9274252 200.46710395 3.32024444 198.36732363 4.90234375 195.203125 C5.41980925 189.45102172 5.41980925 189.45102172 3.15234375 184.328125 C0.29174233 181.62644589 -1.56847682 180.40433282 -5.47265625 179.890625 C-8.96569437 180.30646287 -11.14783023 181.27932542 -14.09765625 183.203125 Z M-52.09765625 202.203125 C-56.39363815 208.06006927 -57.10346601 214.10024164 -56.09765625 221.203125 C-54.30037785 227.38193416 -50.43970456 231.71580032 -45.09765625 235.203125 C-39.27036307 237.9834675 -33.05146721 238.27282043 -26.81640625 236.5859375 C-20.28615719 233.7477908 -16.76494395 228.53770039 -13.66015625 222.328125 C-12.52977721 216.04824145 -13.06791842 210.3736754 -16.34765625 204.828125 C-20.45956274 199.00585285 -25.30061383 196.06053461 -32.09765625 194.203125 C-39.92676778 193.22448606 -46.70815304 196.69113308 -52.09765625 202.203125 Z M12.90234375 206.203125 C8.74306188 213.00629147 6.26416131 219.16202622 6.90234375 227.203125 C9.55376559 236.77846708 13.3603567 243.03644851 21.90234375 248.203125 C28.08112094 251.22066735 35.89636632 251.33113995 42.46875 249.48046875 C51.01357383 245.9092818 56.13714804 240.58856086 59.90234375 232.203125 C62.41240826 223.98981264 60.86626548 216.67264002 56.90234375 209.203125 C53.0906316 203.06865075 47.78889063 199.32860243 40.90234375 197.203125 C30.01180303 195.83036777 20.24335857 197.61181568 12.90234375 206.203125 Z M-132.09765625 201.203125 C-134.29563095 203.91396047 -135.02163502 205.69269672 -135.53515625 209.140625 C-134.96009656 213.16604285 -133.79351459 215.1616438 -131.09765625 218.203125 C-126.85199541 220.20579521 -124.88055456 220.42494619 -120.34765625 219.140625 C-116.85845185 217.06052238 -115.57824944 215.94815483 -114.09765625 212.203125 C-113.51002488 208.25760011 -113.93390744 206.51849307 -115.78515625 202.953125 C-118.19680709 200.08521589 -119.51801678 199.12098127 -123.09765625 198.203125 C-126.91072978 198.203125 -128.84594503 199.23854947 -132.09765625 201.203125 Z M-194.09765625 205.203125 C-196.61016208 208.97188375 -196.62781711 210.73462634 -196.09765625 215.203125 C-194.31613558 218.17674128 -192.244584 220.62966112 -189.09765625 222.203125 C-184.67884795 222.7129875 -182.58993724 222.49484707 -178.72265625 220.203125 C-175.91392686 216.99314856 -175.08329063 215.35582458 -174.86328125 211.19921875 C-175.27244378 207.71451789 -176.78896609 205.75483517 -179.09765625 203.203125 C-185.11087445 199.89585499 -188.84164571 201.20398655 -194.09765625 205.203125 Z M-101.09765625 237.203125 C-103.78232366 240.38177122 -105.09765625 243.36079505 -105.09765625 247.546875 C-104.42856786 251.72867746 -103.34682753 254.42612393 -100.09765625 257.203125 C-95.68713958 260.14346945 -93.4619423 260.64282058 -88.09765625 260.203125 C-84.03055642 258.74761893 -81.61622895 256.95589182 -79.16015625 253.390625 C-77.91683218 249.66065279 -77.60900842 247.11230763 -78.09765625 243.203125 C-80.15911784 239.37469633 -82.23927681 236.29767384 -86.09765625 234.203125 C-92.07603273 232.47859332 -96.28287855 233.417857 -101.09765625 237.203125 Z M-70.87109375 252.421875 C-74.79756371 258.12400971 -74.91786359 263.40223911 -74.09765625 270.203125 C-71.85340719 276.89579631 -68.07171954 280.66293935 -62.09765625 284.203125 C-56.61460494 286.03080877 -50.1671199 286.36671253 -44.70703125 284.296875 C-39.48184839 281.18569742 -35.84736495 277.20262562 -32.78515625 271.953125 C-31.11803188 265.28462754 -31.31769633 259.05658316 -34.76171875 253.0234375 C-38.06798676 248.51840565 -42.57908784 244.486513 -48.09765625 243.203125 C-58.05310101 242.09696447 -64.56549989 244.67198311 -70.87109375 252.421875 Z M-12.84765625 252.0390625 C-17.57252347 257.96786223 -19.87976648 263.51237436 -19.09765625 271.203125 C-17.08753764 278.36576285 -13.25528856 283.09415675 -7.09765625 287.203125 C-1.47352304 289.70273976 3.99836427 289.74211965 9.90234375 288.203125 C15.76070595 285.39294188 19.8506339 281.92508096 22.90234375 276.203125 C24.86446166 270.31677127 24.91932975 263.60076923 22.33984375 257.890625 C19.31697389 252.65170108 14.52313697 248.45964782 8.90234375 246.203125 C0.55337872 245.17739501 -6.85228093 245.74927143 -12.84765625 252.0390625 Z M41.58984375 260.640625 C38.28100222 265.66516214 37.5104188 269.06374201 38.3671875 274.9921875 C39.50301485 279.68472969 42.00828419 282.43381794 45.58984375 285.515625 C51.08902346 288.31709391 55.62909154 288.81960018 61.58984375 287.203125 C66.46035326 284.26244001 70.08431724 280.65720453 71.90234375 275.203125 C72.27057863 269.58754311 72.14125781 266.00925554 68.90234375 261.203125 C64.58684532 256.84681807 61.44104228 254.41468321 55.15234375 253.890625 C49.33570006 253.97616388 45.59061367 256.42359724 41.58984375 260.640625 Z M-101.09765625 289.203125 C-106.83399649 296.42818211 -107.87916875 303.10813167 -107.09765625 312.203125 C-105.34588703 319.4668305 -101.12315376 324.0000842 -95.09765625 328.203125 C-88.6948417 331.87881483 -82.57620113 332.26594386 -75.48046875 330.58203125 C-67.52724011 327.86246219 -63.32103026 323.00437734 -59.16015625 315.890625 C-56.99031512 308.35999991 -57.18576988 301.31477146 -60.76953125 294.2734375 C-65.43683366 286.99793668 -71.07169158 283.41307946 -79.47265625 281.390625 C-87.95312729 280.95197995 -94.72917467 283.56282251 -101.09765625 289.203125 Z M21.08984375 298.953125 C16.4787292 304.64858841 14.19042101 310.45665882 14.49609375 317.84375 C15.7681742 325.23160183 19.86111129 331.19394878 25.67578125 335.7890625 C31.4957028 339.48522321 36.83143536 340.65867103 43.65234375 339.640625 C51.91719528 337.70209943 56.95429094 332.88756573 61.90234375 326.203125 C64.78953414 320.42874422 65.02485863 313.70641561 63.0625 307.58203125 C59.9477542 300.691836 55.38163658 295.4167722 48.546875 292.0390625 C37.99918688 288.70493361 28.51519342 291.11096776 21.08984375 298.953125 Z M-33.09765625 309.203125 C-37.50082083 315.97048874 -40.05747367 321.98821705 -39.09765625 330.203125 C-37.19035055 338.32206142 -33.04550079 343.65108892 -26.09765625 348.203125 C-19.02186995 351.59684068 -12.41792617 351.9500793 -5.00390625 349.515625 C1.33175126 346.78641869 5.81114213 342.12682288 9.0390625 336.0703125 C11.63857841 329.5068289 11.68899315 322.48517728 8.95703125 315.9375 C4.86103273 308.83053567 -1.22330585 303.60546919 -9.09765625 301.203125 C-18.11375592 299.98797679 -26.67651206 302.60361569 -33.09765625 309.203125 Z M-65.03515625 340.328125 C-66.64638733 344.68792675 -66.98871664 348.62663886 -66.09765625 353.203125 C-63.68568804 357.4650494 -60.62014908 360.31654904 -56.09765625 362.203125 C-50.03215058 362.88978602 -46.92966802 361.64128722 -42.09765625 358.203125 C-39.07129709 354.47061538 -38.17876382 350.98847184 -38.09765625 346.203125 C-39.62009859 341.55882056 -41.69930391 337.61512467 -46.09765625 335.203125 C-53.76205838 332.64832429 -59.64264622 334.41375916 -65.03515625 340.328125 Z M-111.09765625 347.203125 C-115.29336169 352.70998839 -114.94906253 359.57837332 -114.09765625 366.203125 C-111.93195687 372.14195398 -107.32276548 376.76851656 -102.09765625 380.203125 C-95.89745002 382.84395358 -90.27659658 382.53764061 -83.95703125 380.51953125 C-77.30007966 377.66110738 -73.63630109 372.6301067 -70.72265625 366.140625 C-69.30638055 359.48412922 -70.0678152 354.2017216 -73.09765625 348.203125 C-77.00772744 342.39387637 -81.45625878 339.54234245 -88.07421875 337.6328125 C-97.50178992 335.86749041 -104.87618668 340.47050183 -111.09765625 347.203125 Z M37.58984375 354.515625 C35.45444494 357.91644533 34.97157974 360.18743756 34.90234375 364.203125 C36.62644312 370.08534638 39.09756454 372.72732727 43.90234375 376.203125 C47.64656684 378.07523655 51.92080656 377.82908343 55.84375 376.58984375 C60.14869993 374.47920955 62.41339836 371.73236824 64.3125 367.35546875 C65.58197606 362.72314222 64.58343969 358.86802618 62.77734375 354.453125 C59.78716296 350.86490805 56.44264917 348.68862739 51.87890625 347.81640625 C45.43302027 347.45830147 41.9565994 350.14886935 37.58984375 354.515625 Z M-40.47265625 363.953125 C-42.76465739 368.53712728 -43.02965263 372.33141115 -41.47265625 377.12890625 C-39.39906136 381.45198132 -36.62645332 383.72468239 -32.24609375 385.60546875 C-28.60870264 386.61732482 -25.65011588 386.4608281 -22.09765625 385.203125 C-17.13310718 382.01831993 -14.62223166 378.92028279 -13.09765625 373.203125 C-13.2986142 368.32989466 -14.39934737 365.06682283 -17.47265625 361.265625 C-21.76991446 357.88920783 -24.41595294 356.72234944 -30.07421875 356.890625 C-34.77475369 357.61657634 -37.48203099 360.49029575 -40.47265625 363.953125 Z M-9.09765625 378.203125 C-14.44980617 385.61856749 -15.0113674 393.27134184 -14.09765625 402.203125 C-10.99440078 411.75754641 -4.73606834 417.50440713 3.90234375 422.203125 C10.95695385 424.5546617 19.48757192 424.33844553 26.27734375 421.265625 C33.55668672 417.00834863 39.30923957 410.76319369 41.5 402.515625 C43.0792306 393.43888213 41.60707225 385.99105949 36.6171875 378.1953125 C32.24510398 372.5688429 25.93621329 368.55264648 18.90234375 367.203125 C7.62415355 365.99616079 -1.50736554 369.824005 -9.09765625 378.203125 Z M-75.9140625 395.32421875 C-79.60309973 401.18041316 -81.28553898 407.3042676 -80.09765625 414.203125 C-77.66929029 421.53319262 -73.52056108 426.92118845 -67.09765625 431.203125 C-60.86992271 434.28084407 -53.39281057 434.31746717 -46.71875 432.5859375 C-39.89313797 429.56717367 -34.79567627 423.725778 -32.09765625 416.828125 C-30.10248587 409.62816233 -31.17212188 402.51093912 -34.8046875 396.01953125 C-38.63020477 390.64531515 -43.79950106 387.09257156 -50.09765625 385.203125 C-60.44036269 383.76885138 -69.48914702 386.89720496 -75.9140625 395.32421875 Z M-128.09765625 402.203125 C-129.56967449 405.58010801 -129.2255366 406.84790179 -127.97265625 410.328125 C-125.89627552 413.51190878 -124.62271235 414.80949817 -121.09765625 416.203125 C-117.12556209 416.203125 -115.42681352 415.44641516 -112.22265625 413.078125 C-109.84102685 410.31630136 -109.84102685 410.31630136 -109.53515625 406.703125 C-110.17887844 402.69774248 -111.25711451 401.04366674 -114.09765625 398.203125 C-119.99347237 395.25521694 -123.88438066 397.7938831 -128.09765625 402.203125 Z M-31.09765625 425.203125 C-32.99356078 427.70227188 -33.10234491 428.98275804 -33.03515625 432.140625 C-31.82356472 436.09849065 -30.42176597 437.74617434 -27.09765625 440.203125 C-23.59765625 441.03645833 -23.59765625 441.03645833 -20.09765625 440.203125 C-17.13172507 437.94643824 -15.51249081 436.21428424 -14.09765625 432.765625 C-14.09765625 429.20778728 -15.18446535 427.17186949 -17.09765625 424.203125 C-21.93551046 420.65536524 -26.54371268 421.75689743 -31.09765625 425.203125 Z M-106.09765625 436.203125 C-111.0202672 442.21490367 -113.61020573 448.38987078 -113.09765625 456.203125 C-111.95719313 463.26929339 -108.48385207 468.56093677 -103.09765625 473.203125 C-96.89605745 477.35702608 -90.42222417 478.23551959 -83.09765625 477.203125 C-75.96000475 475.28535743 -71.35189022 470.00435315 -67.09765625 464.203125 C-64.12622712 458.26026674 -64.16847468 451.35006401 -66.22265625 445.078125 C-69.05523396 438.46438541 -73.43781412 433.82828351 -80.02734375 430.921875 C-89.35794469 427.68257203 -98.65642565 429.65177352 -106.09765625 436.203125 Z M26.90234375 435.203125 C24.07996923 438.3704564 22.99291995 441.55776958 22.40234375 445.765625 C23.15706228 450.95431486 25.6073298 453.75575646 29.02734375 457.578125 C33.28672229 459.98559983 37.12040892 459.83440353 41.90234375 459.203125 C46.14024911 457.63694258 48.10414287 455.11105815 50.171875 451.09375 C51.9787692 446.41708266 51.24423627 443.04361077 49.40234375 438.515625 C46.89796302 434.5443927 43.31905189 432.59197268 38.90234375 431.203125 C33.96921497 431.203125 30.92617309 432.39963735 26.90234375 435.203125 Z M-57.91015625 447.078125 C-60.12837026 451.0475606 -60.23434664 454.24629226 -59.59765625 458.703125 C-57.66376549 463.21553677 -55.27559593 465.66924272 -51.09765625 468.203125 C-46.81777296 469.50237529 -44.68968701 469.38374455 -40.41015625 468.078125 C-35.67153179 465.39588474 -33.80937257 462.84316695 -31.66015625 457.890625 C-30.94795602 453.22175684 -31.70807016 450.24433678 -34.09765625 446.203125 C-38.61607881 441.90511329 -41.69703804 440.84954087 -47.77734375 440.91796875 C-52.20280458 441.46183852 -54.91282128 443.97743365 -57.91015625 447.078125 Z M-16.75 455.30078125 C-20.24719024 460.23739471 -19.6038176 466.4299513 -19.09765625 472.203125 C-17.35096698 478.91174684 -12.92033727 482.74777631 -7.09765625 486.203125 C-1.61460494 488.03080877 4.8328801 488.36671253 10.29296875 486.296875 C15.51815161 483.18569742 19.15263505 479.20262562 22.21484375 473.953125 C23.88196812 467.28462754 23.68230367 461.05658316 20.23828125 455.0234375 C16.93201324 450.51840565 12.42091216 446.486513 6.90234375 445.203125 C-3.79276736 444.01477932 -9.9296946 447.20652358 -16.75 455.30078125 Z M-129.09765625 466.203125 C-131.71833974 469.24649938 -132.09765625 470.72389299 -132.09765625 474.765625 C-130.89701064 478.89284429 -129.76095811 480.03844663 -126.09765625 482.203125 C-122.83232006 483.42762607 -121.67140844 483.46267956 -118.47265625 482.015625 C-115.00962616 479.37278625 -113.35634396 477.69057936 -112.59765625 473.328125 C-113.28282119 469.04584411 -114.99344373 467.16937252 -118.09765625 464.203125 C-122.50353298 462.28261463 -125.20218608 463.66260097 -129.09765625 466.203125 Z M-61.09765625 488.203125 C-64.64078118 493.37631379 -66.37492591 498.92190082 -66.09765625 505.203125 C-64.70960254 512.17752603 -61.93847443 516.99359975 -56.28515625 521.390625 C-49.61496831 525.18347697 -43.50595389 526.11457889 -36.09765625 524.203125 C-29.42904766 521.14888113 -25.24015098 516.78272335 -22.09765625 510.203125 C-20.04906968 504.0573653 -20.48385904 498.82573825 -23.22265625 492.953125 C-26.95649029 486.18817288 -31.66277319 482.63869014 -39.09765625 480.203125 C-47.91505945 479.36337231 -54.82794533 481.79092065 -61.09765625 488.203125 Z M-105.84765625 490.015625 C-107.4870887 492.88463179 -107.96764642 494.88787441 -108.09765625 498.203125 C-106.85015969 502.45928974 -105.67595875 504.69053869 -102.34765625 507.640625 C-98.49262753 509.49400419 -96.32755443 509.80739617 -92.09765625 509.203125 C-88.4175811 507.36308743 -86.49317973 505.77727199 -84.16015625 502.390625 C-82.83092412 498.40292861 -82.94337098 496.24312345 -84.09765625 492.203125 C-85.96806125 489.29650259 -87.95198524 486.77596051 -91.09765625 485.203125 C-97.53167962 484.78122183 -101.1916909 485.19337518 -105.84765625 490.015625 Z M-131.09765625 496.203125 C-133.25255041 499.43546623 -134.114703 501.36783421 -134.03515625 505.265625 C-132.95622553 508.64627459 -131.52159226 510.63228378 -129.09765625 513.203125 C-125.89151778 514.80619424 -122.57625628 514.69052961 -119.09765625 514.203125 C-115.69875483 512.13422848 -113.20828614 510.09032963 -112.09765625 506.203125 C-112.17885015 501.7374604 -112.6198012 499.76674891 -115.53515625 496.328125 C-120.69615539 492.04827206 -125.771227 491.88439859 -131.09765625 496.203125 Z M21.90234375 498.203125 C20.28804452 501.43172347 20.30663718 504.71306153 20.90234375 508.203125 C22.6383648 511.22820645 24.73814512 513.62102569 27.90234375 515.203125 C30.96167782 515.62385856 33.84784871 515.67873841 36.90234375 515.203125 C40.10212557 512.75222829 42.74939329 510.12315656 43.90234375 506.203125 C43.82114985 501.7374604 43.3801988 499.76674891 40.46484375 496.328125 C36.90477694 493.37587447 34.68465289 492.80967466 30.0078125 492.84375 C26.28640922 493.47894314 24.49921526 495.54291516 21.90234375 498.203125 Z M-12.09765625 504.203125 C-15.29966278 507.26591385 -16.85877858 509.38198301 -18.09765625 513.640625 C-18.09765625 517.96617813 -17.22450391 520.44569414 -15.09765625 524.203125 C-10.5134046 528.45194361 -7.53124737 529.56300238 -1.41796875 529.484375 C3.17694608 528.92741563 5.86510445 526.41323752 8.77734375 523.015625 C10.38144111 519.00538161 10.58597465 515.46267136 9.90234375 511.203125 C7.89191101 507.32586186 5.77399104 504.30487638 1.90234375 502.203125 C-3.72830366 500.71578417 -7.05904137 501.31058683 -12.09765625 504.203125 Z M-89.09765625 521.203125 C-90.30032308 525.16485102 -90.5690754 527.16600286 -88.84765625 530.953125 C-88.27015625 531.695625 -87.69265625 532.438125 -87.09765625 533.203125 C-86.44796875 534.069375 -86.44796875 534.069375 -85.78515625 534.953125 C-83.22580573 536.8489402 -81.26254798 537.0790116 -78.09765625 537.203125 C-74.0315577 535.68830397 -71.02932688 534.1737813 -69.09765625 530.203125 C-68.56567614 525.415304 -68.37256611 523.33909955 -70.97265625 519.265625 C-73.8713856 516.45215239 -74.71983404 516.24090722 -78.84765625 515.828125 C-83.83286216 515.90984969 -85.84063084 517.46946172 -89.09765625 521.203125 Z M-132.53515625 526.390625 C-136.32666609 531.43160967 -138.54284209 537.03365943 -137.97265625 543.390625 C-136.14870398 551.33784559 -132.48089873 555.40302798 -126.09765625 560.203125 C-121.53423652 562.96519483 -116.28198809 562.82841082 -111.09765625 562.203125 C-104.93024581 560.3866214 -100.58189945 556.54045296 -97.09765625 551.203125 C-94.31731375 545.37583182 -94.02796082 539.15693596 -95.71484375 532.921875 C-98.56304643 526.3684883 -103.8195895 522.64547437 -110.22265625 519.828125 C-118.42707266 518.04455622 -126.68466168 520.11702733 -132.53515625 526.390625 Z M-33.09765625 538.203125 C-34.64790089 541.30361428 -34.3875764 543.78206718 -34.09765625 547.203125 C-32.68887529 550.1932893 -32.68887529 550.1932893 -30.09765625 552.203125 C-26.14836346 553.35201018 -24.06806766 553.63441896 -20.28515625 551.953125 C-17.16474498 549.45679598 -16.17571098 547.80526149 -15.66015625 543.828125 C-15.80733362 540.10095193 -15.80733362 540.10095193 -18.22265625 537.328125 C-24.11120121 532.97572221 -27.52717543 533.66901271 -33.09765625 538.203125 Z M-76.97265625 545.203125 C-81.1322324 551.0754678 -81.95579543 556.08817353 -81.09765625 563.203125 C-78.97914654 570.39590946 -74.07934581 574.83563391 -67.78515625 578.578125 C-61.10576815 580.13147107 -54.95065037 579.97451437 -48.91796875 576.54296875 C-44.62657804 573.38428417 -41.07606981 569.17174352 -39.09765625 564.203125 C-38.40665637 557.75977546 -38.24223853 551.65388798 -42.09765625 546.203125 C-46.36551112 541.49754142 -50.21305455 537.60597258 -56.734375 536.9296875 C-65.71569152 536.63069361 -70.9741293 538.49172963 -76.97265625 545.203125 Z M-11.09765625 548.203125 C-14.19485226 552.84891901 -15.36515548 557.65697425 -15.09765625 563.203125 C-13.42781994 570.89377957 -9.58906089 575.87131218 -3.09765625 580.203125 C2.33042408 582.80408016 7.71958175 583.21806149 13.42578125 581.3984375 C20.08303643 578.49963269 23.6360687 574.63925369 26.90234375 568.203125 C28.91553237 562.16355913 28.52858073 556.84790637 25.96484375 551.015625 C23.0354965 545.73292574 19.44168358 542.59471299 13.90234375 540.203125 C3.86244376 537.46779621 -4.18243421 540.71927727 -11.09765625 548.203125 Z M-151.09765625 560.203125 C-152.66701219 563.34183688 -152.44966728 565.74168322 -152.09765625 569.203125 C-150.10982188 572.12275673 -148.66618655 573.81415478 -145.16015625 574.68359375 C-141.23684559 574.95852272 -139.42710489 574.42275743 -136.09765625 572.203125 C-133.87802382 568.87367636 -133.34225853 567.06393566 -133.6171875 563.140625 C-134.48662647 559.6345947 -136.17802452 558.19095937 -139.09765625 556.203125 C-144.56505526 555.32443587 -147.21201423 556.31748298 -151.09765625 560.203125 Z " fill="#5AC2E7" transform="translate(586.09765625,105.796875)"/>
<path d="M0 0 C1.19126495 0.00215515 2.38252991 0.0043103 3.6098938 0.00653076 C21.05594308 0.05716137 38.19715774 0.39402323 55.4375 3.3125 C56.66791016 3.51649414 57.89832031 3.72048828 59.16601562 3.93066406 C76.88838144 6.91879045 94.27991816 10.93856404 111.4375 16.3125 C112.46053223 16.63025391 113.48356445 16.94800781 114.53759766 17.27539062 C141.56274623 25.80300869 167.20001292 37.66004562 191.4375 52.3125 C192.27700195 52.81491211 193.11650391 53.31732422 193.98144531 53.83496094 C205.74287909 60.9102344 216.71750816 68.74959704 227.4375 77.3125 C227.97874512 77.74191895 228.51999023 78.17133789 229.07763672 78.61376953 C234.85139908 83.20556052 240.41120389 87.99949375 245.85546875 92.9765625 C247.94787432 94.86954061 250.06614268 96.71687488 252.203125 98.55859375 C256.65227723 102.44398889 260.83581036 106.56319938 265 110.75 C265.71607422 111.46220703 266.43214844 112.17441406 267.16992188 112.90820312 C333.85298858 179.71262209 369.65757207 275.17061691 369.8125 368.8125 C369.65586795 441.12606637 348.95809713 513.14676849 308.4375 573.3125 C307.94926758 574.03872559 307.46103516 574.76495117 306.95800781 575.51318359 C297.78690411 589.04615369 287.71520258 601.88163242 276.6328125 613.90625 C274.78664221 615.92981032 272.99485617 617.98396289 271.20703125 620.05859375 C267.3167624 624.51485207 263.19286305 628.70478068 259 632.875 C258.28779297 633.59107422 257.57558594 634.30714844 256.84179688 635.04492188 C252.20477317 639.67352229 247.42813913 644.06869184 242.4375 648.3125 C241.48194214 649.12811401 241.48194214 649.12811401 240.50708008 649.96020508 C223.50635574 664.36785284 205.64471577 677.01063984 186.4375 688.3125 C185.58236816 688.8163623 184.72723633 689.32022461 183.84619141 689.83935547 C149.70920475 709.71863536 111.22672432 723.90254619 72.4375 731.3125 C70.90778564 731.60543945 70.90778564 731.60543945 69.34716797 731.90429688 C66.27651195 732.47868506 63.20289781 733.02834419 60.125 733.5625 C58.82127441 733.78969727 58.82127441 733.78969727 57.49121094 734.02148438 C38.67836384 737.0662586 19.90079108 737.68703864 0.875 737.625 C-0.91189743 737.62176727 -0.91189743 737.62176727 -2.7348938 737.61846924 C-20.18094308 737.56783863 -37.32215774 737.23097677 -54.5625 734.3125 C-56.40811523 734.00650879 -56.40811523 734.00650879 -58.29101562 733.69433594 C-76.01338144 730.70620955 -93.40491816 726.68643596 -110.5625 721.3125 C-111.58553223 720.99474609 -112.60856445 720.67699219 -113.66259766 720.34960938 C-140.68774623 711.82199131 -166.32501292 699.96495438 -190.5625 685.3125 C-191.40200195 684.81008789 -192.24150391 684.30767578 -193.10644531 683.79003906 C-204.86787909 676.7147656 -215.84250816 668.87540296 -226.5625 660.3125 C-227.37436768 659.66837158 -227.37436768 659.66837158 -228.20263672 659.01123047 C-233.97639908 654.41943948 -239.53620389 649.62550625 -244.98046875 644.6484375 C-247.07287432 642.75545939 -249.19114268 640.90812512 -251.328125 639.06640625 C-255.77727723 635.18101111 -259.96081036 631.06180062 -264.125 626.875 C-264.84107422 626.16279297 -265.55714844 625.45058594 -266.29492188 624.71679688 C-332.97798858 557.91237791 -368.78257207 462.45438309 -368.9375 368.8125 C-368.76814742 290.6261474 -344.45118451 213.1640928 -297.5625 150.3125 C-296.95607666 149.49773193 -296.95607666 149.49773193 -296.33740234 148.66650391 C-284.30058143 132.57447183 -270.9781256 117.67738375 -256.8125 103.4375 C-256.21083008 102.83115723 -255.60916016 102.22481445 -254.98925781 101.60009766 C-250.67821822 97.30437887 -246.19025968 93.26360132 -241.5625 89.3125 C-240.92376953 88.76706543 -240.28503906 88.22163086 -239.62695312 87.65966797 C-222.62420296 73.25718673 -204.7684937 60.61364107 -185.5625 49.3125 C-184.70736816 48.8086377 -183.85223633 48.30477539 -182.97119141 47.78564453 C-148.83420475 27.90636464 -110.35172432 13.72245381 -71.5625 6.3125 C-70.54269043 6.11720703 -69.52288086 5.92191406 -68.47216797 5.72070312 C-65.40151195 5.14631494 -62.32789781 4.59665581 -59.25 4.0625 C-57.94627441 3.83530273 -57.94627441 3.83530273 -56.61621094 3.60351562 C-37.80336384 0.5587414 -19.02579108 -0.06203864 0 0 Z M-155.5625 54.3125 C-156.40071289 54.72467773 -157.23892578 55.13685547 -158.10253906 55.56152344 C-186.46125594 69.66700145 -211.76965339 87.86445763 -235.15625 109.125 C-237.67273737 111.41271579 -240.21149946 113.67425856 -242.75 115.9375 C-248.67655357 121.28065846 -254.24291127 126.80020622 -259.44140625 132.85546875 C-261.07778547 134.75101669 -262.73152826 136.623478 -264.40234375 138.48828125 C-324.44796371 205.94073734 -354.75859787 297.2384735 -350.25390625 387.08984375 C-349.3210383 402.99191062 -347.41557297 418.64308347 -344.5625 434.3125 C-344.30194824 435.74722656 -344.30194824 435.74722656 -344.03613281 437.2109375 C-339.09565653 463.58449663 -330.25298386 488.75999447 -319.5625 513.3125 C-319.20833008 514.13137695 -318.85416016 514.95025391 -318.48925781 515.79394531 C-304.48382384 547.8322465 -283.95405903 577.43430647 -260.5625 603.3125 C-259.97065918 603.96750488 -259.37881836 604.62250977 -258.76904297 605.29736328 C-246.62792183 618.65291952 -233.80417915 631.19432228 -219.5625 642.3125 C-218.94149414 642.80073242 -218.32048828 643.28896484 -217.68066406 643.79199219 C-167.02912739 683.52579182 -107.3675545 708.71633233 -43.5625 717.3125 C-42.72944336 717.43109375 -41.89638672 717.5496875 -41.03808594 717.671875 C25.90627757 726.86407203 96.24837338 712.94106899 156.4375 683.3125 C157.27571289 682.90032227 158.11392578 682.48814453 158.97753906 682.06347656 C187.33625594 667.95799855 212.64465339 649.76054237 236.03125 628.5 C238.54773737 626.21228421 241.08649946 623.95074144 243.625 621.6875 C249.55155357 616.34434154 255.11791127 610.82479378 260.31640625 604.76953125 C261.95278547 602.87398331 263.60652826 601.001522 265.27734375 599.13671875 C325.32296371 531.68426266 355.63359787 440.3865265 351.12890625 350.53515625 C348.55132934 306.5535221 337.94589308 264.67888695 320.4375 224.3125 C320.08187988 223.48927246 319.72625977 222.66604492 319.35986328 221.81787109 C305.35466297 189.78507099 284.82552936 160.18678863 261.4375 134.3125 C260.84565918 133.65749512 260.25381836 133.00249023 259.64404297 132.32763672 C247.50292183 118.97208048 234.67917915 106.43067772 220.4375 95.3125 C219.81649414 94.82426758 219.19548828 94.33603516 218.55566406 93.83300781 C167.90412739 54.09920818 108.2425545 28.90866767 44.4375 20.3125 C43.18791504 20.13460937 43.18791504 20.13460937 41.91308594 19.953125 C-25.03127757 10.76092797 -95.37337338 24.68393101 -155.5625 54.3125 Z " fill="#5AC2E7" transform="translate(599.5625,64.6875)"/>
</svg>
